<?xml version="1.0" encoding="UTF-8"?>
<svg version="1.1" xmlns="http://www.w3.org/2000/svg" width="561" height="131">
<path d="M0 0 C4.35487797 1.91706192 9.09660166 3.99225002 13.86376953 4.51660156 C17.01543148 5.70020788 17.89660465 7.72941437 19.65234375 10.55859375 C20.67521484 12.18474609 20.67521484 12.18474609 21.71875 13.84375 C22.42880218 14.99844174 23.13843529 16.15339128 23.84765625 17.30859375 C25.24018866 19.53819574 26.63340676 21.76736963 28.02734375 23.99609375 C28.69217773 25.06730469 29.35701172 26.13851562 30.04199219 27.2421875 C32.26947795 30.78002528 34.58446599 34.24967136 36.94580078 37.69921875 C37.97265625 39.30859375 37.97265625 39.30859375 37.97265625 40.30859375 C21.18769622 40.35526808 4.40275638 40.39056013 -12.38225365 40.41221809 C-20.17543072 40.42254054 -27.96856752 40.4366193 -35.76171875 40.45947266 C-42.55245128 40.47937698 -49.34315465 40.49230314 -56.13391554 40.49677074 C-59.73118359 40.49938316 -63.32836822 40.5055434 -66.92560959 40.52005386 C-70.93660976 40.53610282 -74.94746394 40.53657535 -78.95849609 40.53564453 C-80.15755081 40.54283508 -81.35660553 40.55002563 -82.59199524 40.55743408 C-83.68017044 40.55468475 -84.76834564 40.55193542 -85.88949585 40.54910278 C-87.31366601 40.55186816 -87.31366601 40.55186816 -88.76660728 40.55468941 C-91.02734375 40.30859375 -91.02734375 40.30859375 -93.02734375 38.30859375 C-90.24602397 33.66165143 -87.4053946 29.05886657 -84.50683594 24.48413086 C-83.53254598 22.92800008 -82.57433771 21.36166579 -81.63378906 19.78491211 C-76.62534904 11.4135864 -72.52419526 4.6180685 -62.71484375 1.9453125 C-61.40973743 1.64914715 -60.10106808 1.36817567 -58.7890625 1.10424805 C-55.92638696 0.49875353 -53.85185295 -0.10632682 -51.24267578 -1.26879883 C-47.8561728 -2.76713997 -45.57753313 -3.09519363 -41.90234375 -3.06640625 C-40.90976562 -3.07414062 -39.9171875 -3.081875 -38.89453125 -3.08984375 C-35.61074853 -2.63351427 -33.74651586 -1.54305518 -31.02734375 0.30859375 C-29.70125553 0.98955797 -28.37047774 1.66189961 -27.02734375 2.30859375 C-26.32158203 1.78458984 -26.32158203 1.78458984 -25.6015625 1.25 C-24.97894531 0.79496094 -24.35632813 0.33992188 -23.71484375 -0.12890625 C-23.09996094 -0.58136719 -22.48507813 -1.03382812 -21.8515625 -1.5 C-14.44358807 -6.33818459 -7.27237757 -3.24544789 0 0 Z M-56.84692383 6.37109375 C-59.11584283 7.34664509 -60.93717903 7.58305946 -63.37890625 7.84765625 C-67.47803419 8.71370471 -69.07640349 10.060327 -71.4609375 13.484375 C-72.49113503 15.1793863 -73.49197138 16.89254245 -74.46484375 18.62109375 C-75.23731445 19.9040332 -75.23731445 19.9040332 -76.02539062 21.21289062 C-78.37084646 25.16071785 -80.39013847 29.0111076 -82.02734375 33.30859375 C-73.69105073 32.82765377 -66.85294064 29.47802636 -59.31640625 26.08984375 C-51.68052222 22.80053986 -46.62732255 22.14866026 -38.77734375 25.12109375 C-35.46602415 26.49729505 -32.86304518 28.12886271 -30.02734375 30.30859375 C-29.82306684 26.60108008 -29.69939787 22.89501903 -29.58984375 19.18359375 C-29.53119141 18.136875 -29.47253906 17.09015625 -29.41210938 16.01171875 C-29.18512891 10.29446694 -29.18512891 10.29446694 -31.51342773 5.26489258 C-40.41495096 -2.5556729 -47.61459076 1.46570573 -56.84692383 6.37109375 Z M-20.21484375 2.74609375 C-20.90964844 3.19855469 -21.60445313 3.65101562 -22.3203125 4.1171875 C-23.97529668 5.19816413 -23.97529668 5.19816413 -25.02734375 6.30859375 C-25.11448206 8.01631733 -25.13434382 9.72758024 -25.125 11.4375 C-25.12177734 12.47197266 -25.11855469 13.50644531 -25.11523438 14.57226562 C-25.10685547 15.66087891 -25.09847656 16.74949219 -25.08984375 17.87109375 C-25.08533203 18.96357422 -25.08082031 20.05605469 -25.07617188 21.18164062 C-25.06434201 23.8906787 -25.04785918 26.59960974 -25.02734375 29.30859375 C-22.78432648 28.21316671 -20.6957988 27.09606493 -18.58984375 25.74609375 C-13.74336089 23.02733507 -8.50591647 22.76496538 -3.02734375 23.30859375 C-0.24693905 24.1534494 2.30128646 25.35023648 4.91015625 26.62109375 C6.30998563 27.26695691 7.711022 27.91021079 9.11328125 28.55078125 C9.77779297 28.85725586 10.44230469 29.16373047 11.12695312 29.47949219 C16.35642065 31.8286022 21.19421734 33.47825431 26.97265625 33.30859375 C25.41607669 29.91384235 23.71939524 26.6093564 21.97265625 23.30859375 C21.66682617 22.71481934 21.36099609 22.12104492 21.04589844 21.50927734 C16.98317881 13.45318937 16.98317881 13.45318937 10.1796875 7.9609375 C7.22178069 7.26798215 7.22178069 7.26798215 4.17578125 6.8828125 C-0.71185546 6.00661421 -4.80849732 3.73499802 -9.21484375 1.515625 C-13.74195751 -0.42726132 -16.28501589 0.14341226 -20.21484375 2.74609375 Z " fill="#070515" transform="translate(104.02734375,55.69140625)"/>
<path d="M0 0 C19 0 19 0 27 2 C29.95230391 5.1737267 30.87638369 7.23083187 31.5625 11.5 C30.82340966 16.09878432 29.21379232 17.70586288 26 21 C26.928125 21.37125 27.85625 21.7425 28.8125 22.125 C32.64554339 24.37973141 33.62722807 25.80093293 35 30 C35.06070828 33.46037173 35.0135016 35.82312799 32.69140625 38.51953125 C28.26260756 42.35193311 24.9255728 43.12652575 19.23828125 43.09765625 C17.72681519 43.09390991 17.72681519 43.09390991 16.18481445 43.09008789 C14.2680188 43.07643188 14.2680188 43.07643188 12.3125 43.0625 C6.2178125 43.0315625 6.2178125 43.0315625 0 43 C0 28.81 0 14.62 0 0 Z M9 7 C9 10.63 9 14.26 9 18 C14.63869302 18.28900646 14.63869302 18.28900646 20 16.8125 C22.20914184 15.14800807 22.20914184 15.14800807 22.625 12.5 C22.20914184 9.85199193 22.20914184 9.85199193 20 8.1875 C16.07906008 6.63546128 13.19832596 6.7865258 9 7 Z M9 25 C9 28.63 9 32.26 9 36 C10.91595968 36.08133791 12.83291932 36.13934367 14.75 36.1875 C15.81734375 36.22230469 16.8846875 36.25710937 17.984375 36.29296875 C21.33199176 35.96774691 22.64419537 35.35580463 25 33 C25.75 30.5 25.75 30.5 25 28 C21.75562598 24.75562598 18.5514304 24.82374724 14.1875 24.8125 C11.6196875 24.9053125 11.6196875 24.9053125 9 25 Z " fill="#080516" transform="translate(156,52)"/>
<path d="M0 0 C0.99 0.33 1.98 0.66 3 1 C3.495 2.485 3.495 2.485 4 4 C1.69720335 6.30279665 -0.75930075 8.36476586 -3.24609375 10.46484375 C-6.61674182 13.35725655 -6.61674182 13.35725655 -8.9375 17.0625 C-10.25938361 19.47299363 -11.54523663 19.89139719 -14 21 C-14.33 21.66 -14.66 22.32 -15 23 C-14.13375 23.309375 -14.13375 23.309375 -13.25 23.625 C-10.73430057 25.16237187 -9.74365099 26.8451139 -8.17285156 29.28417969 C-6.09909975 32.31796981 -3.65753469 35.04162346 -1.25 37.8125 C4 43.87070611 4 43.87070611 4 45 C-0.22210146 45.78348274 -3.80237783 46.00271068 -8 45 C-12.17448795 41.82770481 -15.10289714 37.30719717 -18 33 C-20.31 33.66 -22.62 34.32 -25 35 C-25.33 34.67 -25.66 34.34 -26 34 C-26.33 37.63 -26.66 41.26 -27 45 C-29.97 45 -32.94 45 -36 45 C-36.02505615 44.23333008 -36.0501123 43.46666016 -36.07592773 42.67675781 C-36.19201423 39.20100717 -36.31468366 35.72551908 -36.4375 32.25 C-36.47681641 31.0434375 -36.51613281 29.836875 -36.55664062 28.59375 C-36.59853516 27.43359375 -36.64042969 26.2734375 -36.68359375 25.078125 C-36.72025146 24.00981445 -36.75690918 22.94150391 -36.79467773 21.84082031 C-36.96986909 19.41688848 -37.31198487 17.32113288 -38 15 C-37.34 15 -36.68 15 -36 15 C-36 10.71 -36 6.42 -36 2 C-33.03 2 -30.06 2 -27 2 C-26.98541748 2.6705542 -26.97083496 3.3411084 -26.95581055 4.03198242 C-26.881117 7.08438822 -26.78452701 10.13572585 -26.6875 13.1875 C-26.66494141 14.24259766 -26.64238281 15.29769531 -26.61914062 16.38476562 C-26.58369141 17.40634766 -26.54824219 18.42792969 -26.51171875 19.48046875 C-26.48553467 20.41785889 -26.45935059 21.35524902 -26.43237305 22.32104492 C-25.92871527 25.44167552 -24.76675856 27.40642312 -23 30 C-22.67 29.67 -22.34 29.34 -22 29 C-22.05032304 25.76102596 -22.19808789 22.53233267 -22.35546875 19.296875 C-21.9284005 15.33593433 -20.64630389 13.89010924 -18 11 C-17.22166466 8.81785432 -17.22166466 8.81785432 -17 7 C-16.2575 6.9175 -15.515 6.835 -14.75 6.75 C-11.872105 6.23644977 -11.872105 6.23644977 -10.1875 3.9375 C-7.66437448 1.70273168 -6.99424805 1.732895 -3.75 1.75 C-2.5125 1.8325 -1.275 1.915 0 2 C0 1.34 0 0.68 0 0 Z " fill="#080515" transform="translate(328,50)"/>
<path d="M0 0 C1.28648437 -0.01675781 2.57296875 -0.03351562 3.8984375 -0.05078125 C9.00404704 0.4469354 12.27583698 1.99980084 15.9375 5.5625 C17.95045481 8.84287081 18.32647665 11.50632735 18.625 15.3125 C15.655 15.3125 12.685 15.3125 9.625 15.3125 C9.3775 14.343125 9.13 13.37375 8.875 12.375 C7.99415943 9.28907844 7.99415943 9.28907844 6 8.4375 C-0.7709849 8.01459589 -0.7709849 8.01459589 -7.375 9.3125 C-6.87952457 11.76881001 -6.87952457 11.76881001 -5.375 14.3125 C-2.18595728 16.00879932 0.92981394 17.08474949 4.35546875 18.20703125 C14.32639317 21.58449688 14.32639317 21.58449688 17.625 26.3125 C18.82810257 30.44816507 18.92561198 32.53090886 17.375 36.5625 C14.62031346 40.89129314 12.85760642 42.67796499 7.71484375 43.9609375 C0.70727794 45.13978035 -5.14752912 44.79988369 -11.375 41.3125 C-15.82202761 38.06737175 -16.33877724 34.49361378 -17.375 29.3125 C-14.075 29.3125 -10.775 29.3125 -7.375 29.3125 C-7.08625 30.116875 -6.7975 30.92125 -6.5 31.75 C-5.64237432 34.4451468 -5.64237432 34.4451468 -3.375 35.3125 C-1.26645964 35.5477732 -1.26645964 35.5477732 1.0625 35.5625 C2.23619141 35.60117188 2.23619141 35.60117188 3.43359375 35.640625 C6.10431509 35.24073089 6.94477439 34.36550878 8.625 32.3125 C7.61656814 29.54651547 7.0276052 28.51070564 4.33984375 27.1875 C3.42332031 26.89875 2.50679688 26.61 1.5625 26.3125 C0.58152344 25.98121094 -0.39945312 25.64992188 -1.41015625 25.30859375 C-2.38855469 24.97988281 -3.36695313 24.65117188 -4.375 24.3125 C-12.46273087 21.33534721 -12.46273087 21.33534721 -15.4375 18 C-16.67621684 14.44901171 -16.90010057 12.05384155 -16.375 8.3125 C-12.36463189 1.34209829 -7.66386069 0.02294569 0 0 Z " fill="#070515" transform="translate(368.375,51.6875)"/>
<path d="M0 0 C6.36065079 -0.4543322 10.70847176 0.31745893 16 4 C20.26849135 7.94430213 22.73543826 12.28566529 23.30078125 18.0859375 C23.32976789 26.22152185 23.08449277 31.42848206 17.625 37.75 C11.48926177 43.0092042 6.51964243 44.31974527 -1.40625 44.21484375 C-8.22598948 43.64995569 -13.22526062 40.77473938 -18 36 C-21.20578531 31.13604988 -21.5693914 26.68403346 -22 21 C-19.03 21 -16.06 21 -13 21 C-12.608125 22.4025 -12.21625 23.805 -11.8125 25.25 C-10.79005023 28.21463746 -9.95227247 30.06115089 -8 32.5625 C-2.71525961 35.09477144 3.22612583 34.90239188 8.76171875 33.1015625 C11.12960708 32.17155604 11.12960708 32.17155604 12.3125 30 C13.63693972 24.2206267 13.8718956 19.08496773 11.5625 13.5625 C8.12857487 10.12857487 4.64494532 9.13146104 0 8 C0 5.36 0 2.72 0 0 Z " fill="#070515" transform="translate(263,52)"/>
<path d="M0 0 C6.46732066 -0.71859118 10.33886385 0.60843227 15.79296875 4.15234375 C20.30365669 7.92854799 22.40543681 13.20300891 23 19 C23.44589524 24.79663813 22.73060482 29.85630256 20 35 C15.48383039 40.25391034 10.71646421 43.56314054 3.72265625 44.2109375 C-3.14048898 44.48588631 -9.72814609 43.88472616 -15.046875 39.1953125 C-20.42524224 33.30577812 -22.31659534 29.07318119 -22 21 C-19.03 21 -16.06 21 -13 21 C-12.84144531 21.77085938 -12.68289062 22.54171875 -12.51953125 23.3359375 C-12.28621094 24.33882812 -12.05289063 25.34171875 -11.8125 26.375 C-11.59207031 27.37273437 -11.37164062 28.37046875 -11.14453125 29.3984375 C-10.23235399 32.16190588 -10.23235399 32.16190588 -7.73046875 33.328125 C-1.99283096 34.73996148 3.80103039 35.21167713 9.0625 32.3125 C12.50464376 28.20413487 13.19724127 25.30501863 12.9375 20 C12.47196132 16.40411501 12.03326796 15.04696652 9.875 12 C6.5122693 9.66070907 3.97812344 8.85802662 0 8 C0 5.36 0 2.72 0 0 Z " fill="#070515" transform="translate(215,52)"/>
<path d="M0 0 C2.97 0 5.94 0 9 0 C13.02683728 9.44757978 15.98036822 19.19626214 19 29 C19.2673999 28.15703369 19.5347998 27.31406738 19.81030273 26.44555664 C20.80117482 23.32692619 21.79478385 20.20919599 22.7902832 17.09204102 C23.22107771 15.74115656 23.65076901 14.38991979 24.0793457 13.03833008 C24.69454859 11.09884076 25.31367084 9.16064126 25.93359375 7.22265625 C26.30540771 6.05484619 26.67722168 4.88703613 27.06030273 3.68383789 C28 1 28 1 29 0 C30.68608966 -0.07205511 32.37500659 -0.08386068 34.0625 -0.0625 C34.98160156 -0.05347656 35.90070313 -0.04445312 36.84765625 -0.03515625 C37.55792969 -0.02355469 38.26820313 -0.01195312 39 0 C35.44101495 11.00555463 31.74105491 21.9387837 27.625 32.75 C27.27953125 33.66031982 26.9340625 34.57063965 26.578125 35.50854492 C24.13114668 41.86885332 24.13114668 41.86885332 23 43 C19.99996555 43.14177857 17.00242765 43.04228771 14 43 C10.6802895 35.18670683 8.00957255 27.18896512 5.42578125 19.11083984 C4.74187697 16.97462727 4.05097497 14.84076326 3.359375 12.70703125 C2.9214632 11.34648664 2.48394812 9.98581426 2.046875 8.625 C1.65338867 7.40039062 1.25990234 6.17578125 0.85449219 4.9140625 C0 2 0 2 0 0 Z " fill="#080515" transform="translate(415,52)"/>
<path d="M0 0 C22.11 0 44.22 0 67 0 C67 2.97 67 5.94 67 9 C44.89 9 22.78 9 0 9 C0 6.03 0 3.06 0 0 Z " fill="#090717" transform="translate(474,52)"/>
<path d="M0 0 C3.3 0 6.6 0 10 0 C13.3 9.57 16.6 19.14 20 29 C21.98 23.06 23.96 17.12 26 11 C26.66 11 27.32 11 28 11 C28.54041988 12.34646986 29.05629956 13.70279568 29.5625 15.0625 C29.99755859 16.19365234 29.99755859 16.19365234 30.44140625 17.34765625 C31.71351424 23.38794524 29.46088954 29.20522796 27.5 34.875 C27.27441406 35.55046875 27.04882812 36.2259375 26.81640625 36.921875 C25.1409337 41.8590663 25.1409337 41.8590663 24 43 C22.31391034 43.07205511 20.62499341 43.08386068 18.9375 43.0625 C18.01839844 43.05347656 17.09929687 43.04445312 16.15234375 43.03515625 C15.44207031 43.02355469 14.73179687 43.01195312 14 43 C12.0002153 37.36040961 10.00654838 31.71870878 8.01855469 26.07495117 C7.34120296 24.15475969 6.66217438 22.23515888 5.98144531 20.31616211 C5.00405961 17.55996291 4.03269645 14.80170549 3.0625 12.04296875 C2.60315063 10.75376778 2.60315063 10.75376778 2.13452148 9.43852234 C1.85423096 8.63791885 1.57394043 7.83731537 1.28515625 7.01245117 C1.03644775 6.3085173 0.78773926 5.60458344 0.53149414 4.87931824 C0 3 0 3 0 0 Z " fill="#070515" transform="translate(387,52)"/>
<path d="M0 0 C9.9 0 19.8 0 30 0 C30 2.64 30 5.28 30 8 C23.07 8 16.14 8 9 8 C9 13.61 9 19.22 9 25 C6.03 25 3.06 25 0 25 C0 16.75 0 8.5 0 0 Z " fill="#080515" transform="translate(474,70)"/>
<path d="M0 0 C2.97 0 5.94 0 9 0 C9 10.23 9 20.46 9 31 C6.03 31 3.06 31 0 31 C0 20.77 0 10.54 0 0 Z " fill="#080615" transform="translate(457,64)"/>
<path d="M0 0 C2.97 0 5.94 0 9 0 C9 9.57 9 19.14 9 29 C6.03 29 3.06 29 0 29 C0 19.43 0 9.86 0 0 Z " fill="#080516" transform="translate(519,66)"/>
<path d="M0 0 C2.97 0 5.94 0 9 0 C9 2.64 9 5.28 9 8 C6.03 8 3.06 8 0 8 C0 5.36 0 2.72 0 0 Z " fill="#080614" transform="translate(457,52)"/>
<path d="M0 0 C0.99 0.33 1.98 0.66 3 1 C3.33 1.99 3.66 2.98 4 4 C-0.01051209 8.01051209 -4.39754952 11.68623565 -9 15 C-8.33983912 10.22169265 -5.34274504 8.58665698 -1.71484375 5.78125 C0.46236707 3.93182098 0.46236707 3.93182098 0 0 Z " fill="#020109" transform="translate(328,50)"/>
<path d="M0 0 C1.02104551 0.97850195 2.0206121 1.97980427 3 3 C3 3.33 3 3.66 3 4 C-3.93 4 -10.86 4 -18 4 C-13.77746115 1.88873057 -11.85998477 1.7828003 -7.25 1.875 C-5.49429688 1.90207031 -5.49429688 1.90207031 -3.703125 1.9296875 C-2.36507812 1.96449219 -2.36507812 1.96449219 -1 2 C-0.67 1.34 -0.34 0.68 0 0 Z " fill="#01000D" transform="translate(139,92)"/>
<path d="M0 0 C1.65 0 3.3 0 5 0 C3.68 0.33 2.36 0.66 1 1 C1.33 5.62 1.66 10.24 2 15 C1.01 15.66 0.02 16.32 -1 17 C-1.33 15.68 -1.66 14.36 -2 13 C-1.34 13 -0.68 13 0 13 C0 8.71 0 4.42 0 0 Z " fill="#04020C" transform="translate(292,52)"/>
<path d="M0 0 C0.5775 0.45375 1.155 0.9075 1.75 1.375 C3.7800333 2.84113516 5.73539843 3.94857784 8 5 C4.535 6.485 4.535 6.485 1 8 C0.26919734 6.02253397 -0.39421747 4.01927511 -1 2 C-0.67 1.34 -0.34 0.68 0 0 Z " fill="#000000" transform="translate(302,77)"/>
<path d="M0 0 C0.99 0 1.98 0 3 0 C3.625 1.875 3.625 1.875 4 4 C1.77810176 6.22189824 -0.08482708 6.92598892 -3 8 C-2.5359375 7.13375 -2.5359375 7.13375 -2.0625 6.25 C-1.07416636 4.15705816 -0.4831387 2.25464725 0 0 Z " fill="#020109" transform="translate(311,57)"/>
<path d="M0 0 C2.97 0 5.94 0 9 0 C9 0.99 9 1.98 9 3 C6.03 2.505 6.03 2.505 3 2 C2.34 3.32 1.68 4.64 1 6 C0.67 4.02 0.34 2.04 0 0 Z " fill="#03020A" transform="translate(241,73)"/>
</svg>
